<?xml version="1.0" standalone="no"?>
<!DOCTYPE svg PUBLIC "-//W3C//DTD SVG 20010904//EN"
 "http://www.w3.org/TR/2001/REC-SVG-20010904/DTD/svg10.dtd">
<svg version="1.0" xmlns="http://www.w3.org/2000/svg"
 width="219.000000pt" height="204.000000pt" viewBox="0 0 219.000000 204.000000"
 preserveAspectRatio="xMidYMid meet">
<metadata>
Created by potrace 1.10, written by Peter Selinger 2001-2011
</metadata>
<g transform="translate(0.000000,204.000000) scale(0.100000,-0.100000)"
fill="#000000" stroke="none">
<path d="M1048 1818 c-13 -11 -38 -140 -38 -195 0 -9 20 -13 66 -13 41 0 63
-4 59 -10 -4 -6 -64 -10 -148 -10 -89 0 -137 4 -131 9 5 6 41 12 79 14 l70 3
-72 2 c-54 2 -75 -2 -87 -14 -30 -30 -12 -73 22 -55 12 6 75 11 151 11 109 0
131 -2 132 -15 0 -8 1 -36 1 -62 l1 -48 -64 -7 c-97 -9 -204 -50 -195 -73 2
-6 -2 -12 -10 -12 -7 0 -10 5 -7 10 4 6 1 7 -6 3 -7 -5 -10 -14 -7 -22 3 -7 0
-16 -6 -20 -6 -4 -8 -3 -4 4 3 6 2 13 -3 16 -12 8 -105 -93 -130 -142 -18 -35
-20 -46 -10 -65 11 -20 11 -21 -4 -8 -19 15 -22 8 -7 -19 7 -13 7 -21 -2 -26
-6 -4 -8 -3 -4 4 3 6 1 14 -5 18 -12 7 -11 -1 6 -66 6 -22 5 -23 -7 -9 -11 14
-13 6 -13 -51 0 -57 2 -65 13 -51 12 14 13 13 8 -8 -3 -14 -1 -31 5 -37 7 -9
7 -20 -1 -35 -11 -19 -10 -21 4 -16 14 6 15 3 5 -16 -11 -20 -11 -21 4 -8 20
16 23 1 5 -18 -11 -12 -10 -13 6 -7 17 6 17 5 5 -11 -12 -15 -12 -16 3 -10 22
8 45 -27 26 -39 -7 -5 -8 -3 -3 6 6 9 4 11 -5 5 -10 -6 -9 -11 6 -22 10 -8 18
-19 17 -24 -2 -5 3 -8 10 -6 6 1 11 -4 10 -10 -2 -7 3 -12 10 -10 6 1 11 -3
10 -10 -4 -18 24 -37 33 -22 5 8 3 9 -6 4 -9 -6 -11 -4 -5 5 6 9 4 11 -6 5 -8
-5 -11 -4 -6 0 4 5 -7 25 -25 44 -18 20 -6 11 27 -18 83 -75 84 -76 53 -56
-17 10 -28 13 -28 6 0 -6 7 -11 15 -11 9 0 18 -7 21 -15 5 -13 9 -13 22 -3 12
10 14 10 8 0 -5 -8 8 -19 41 -33 50 -22 66 -26 146 -36 43 -5 48 -8 43 -27 -3
-11 -6 -56 -6 -98 l0 -78 -101 0 -101 0 4 75 c3 67 1 75 -17 79 -41 11 -83 6
-89 -11 -6 -14 -8 -14 -19 -1 -6 9 -37 37 -67 64 -30 26 -69 66 -87 87 -17 22
-44 46 -60 52 l-28 12 28 13 27 13 0 278 0 278 -26 14 -26 14 31 13 c17 7 31
16 31 20 0 14 100 118 133 139 31 19 66 85 53 98 -3 3 -10 -6 -15 -21 -6 -14
-58 -73 -116 -131 -93 -92 -110 -105 -140 -105 -48 0 -102 -35 -116 -75 -12
-31 -14 -33 -33 -19 -62 43 -145 -13 -146 -99 -1 -18 -7 -43 -15 -57 -18 -32
-19 -103 -1 -138 7 -15 16 -47 19 -71 7 -58 33 -83 91 -87 39 -4 51 0 71 20
14 14 25 33 26 43 0 16 1 16 9 -2 5 -12 9 57 9 175 0 107 -4 187 -7 178 -7
-17 -8 -16 -20 2 -12 19 -10 20 72 20 47 0 88 -4 91 -10 3 -5 -1 -36 -10 -69
-19 -75 -19 -193 0 -257 23 -77 25 -76 -60 -72 -41 2 -75 0 -75 -4 0 -5 -7 -8
-15 -8 -18 0 -18 1 -5 -37 12 -33 81 -79 105 -69 27 10 73 -19 115 -71 22 -29
63 -68 91 -88 57 -43 74 -68 61 -92 -14 -25 39 -115 74 -127 21 -7 30 -5 39 8
10 13 82 25 86 14 0 -2 6 -41 12 -88 l12 -85 47 -9 c28 -5 68 -5 99 0 59 10
56 5 74 137 6 47 6 47 45 47 24 0 40 -5 44 -15 3 -8 13 -15 21 -15 9 0 14 4
11 9 -4 5 3 7 13 4 16 -4 25 6 45 46 14 28 26 65 26 84 0 29 8 40 64 85 35 28
79 71 96 96 32 45 77 70 105 60 19 -8 105 42 105 61 0 7 3 20 6 29 4 11 1 16
-10 16 -24 0 -23 87 2 93 16 4 16 5 0 6 -16 1 -18 13 -18 111 0 103 1 110 20
110 19 0 20 -7 20 -113 l0 -113 61 7 c34 4 66 12 72 18 15 15 15 165 -1 183
-7 9 -39 18 -83 22 -39 3 -75 9 -80 12 -15 9 -10 76 7 88 21 16 3 62 -31 78
-14 6 -25 15 -25 20 0 4 -3 7 -7 7 -5 -1 -25 -1 -45 0 -34 1 -48 12 -142 106
-58 58 -111 119 -119 137 -8 18 -19 45 -25 61 -11 26 -13 27 -89 25 l-78 -2
70 -3 c39 -2 74 -8 80 -14 12 -12 -235 -12 -255 1 -11 7 2 10 43 10 66 0 63
-7 46 117 -6 50 -16 82 -27 91 -9 7 -45 12 -87 12 -42 0 -78 -5 -87 -12z m167
-8 c13 -6 -13 -9 -75 -9 -62 0 -88 3 -75 9 11 5 45 9 75 9 30 0 64 -4 75 -9z
m0 -37 c-16 -13 -17 -15 -2 -10 9 4 17 2 17 -3 0 -6 -30 -11 -67 -12 l-68 -2
75 -6 c74 -6 74 -6 -30 -7 -67 0 -94 2 -75 7 l30 8 -30 1 c-23 1 -27 3 -15 11
10 6 11 10 3 10 -7 0 -13 5 -13 10 0 6 39 10 98 10 91 -1 96 -2 77 -17z m-22
-60 c-29 -2 -77 -2 -105 0 -29 2 -6 3 52 3 58 0 81 -1 53 -3z m-35 -20 c-21
-2 -55 -2 -75 0 -21 2 -4 4 37 4 41 0 58 -2 38 -4z m88 -45 l1 -28 -108 0
-109 0 0 30 0 31 108 -3 107 -3 1 -27z m27 -75 c-72 -2 -194 -2 -270 0 -76 1
-16 3 132 3 149 0 211 -2 138 -3z m127 -23 c0 -5 7 -7 15 -4 10 4 20 -6 32
-33 10 -21 27 -44 38 -52 11 -8 57 -51 102 -97 44 -46 87 -84 95 -84 7 -1 1
-8 -14 -16 l-28 -15 0 -278 0 -278 28 -13 27 -13 -26 -11 c-15 -6 -47 -36 -72
-67 -26 -31 -69 -73 -97 -94 -27 -20 -50 -42 -50 -48 0 -7 -5 -4 -11 5 -13 23
-52 23 -141 -2 -40 -11 -86 -21 -103 -21 -24 -1 -25 -3 -7 -6 22 -4 98 8 135
22 15 6 17 0 17 -64 l0 -71 -90 0 -90 0 0 78 c0 107 5 119 48 128 21 4 39 8
42 9 3 1 19 5 35 10 78 22 223 124 209 147 -3 5 -12 4 -19 -2 -10 -9 -13 -7
-10 7 1 10 8 17 14 16 6 -2 11 0 11 5 0 4 9 18 19 31 14 18 20 21 26 11 5 -9
4 -11 -3 -6 -7 4 -12 2 -12 -3 0 -18 19 -12 31 10 8 15 8 24 0 32 -6 6 -11 16
-11 21 0 6 5 4 10 -4 9 -13 11 -13 20 0 18 27 23 61 10 73 -10 10 -12 7 -7
-12 6 -23 5 -23 -11 -7 -12 12 -14 19 -6 24 7 4 11 36 10 83 -1 49 4 85 13
102 13 24 12 33 -14 93 -57 133 -191 240 -336 267 l-59 12 0 62 0 63 115 0
c68 0 115 -4 115 -10z m-160 -177 c83 -22 146 -61 205 -125 77 -83 99 -145 99
-278 0 -140 -22 -200 -108 -285 -34 -33 -70 -65 -80 -71 -13 -7 -16 -13 -9
-17 6 -4 33 9 60 29 26 21 40 28 30 17 -9 -11 -14 -23 -10 -28 5 -4 3 -5 -3
-2 -5 3 -23 -3 -39 -13 -19 -12 -33 -16 -40 -10 -8 6 -32 3 -68 -10 -31 -11
-64 -20 -74 -20 -14 -1 -13 -4 7 -16 17 -11 19 -13 5 -9 -11 4 -54 11 -95 16
-137 17 -218 56 -293 139 -26 28 -59 77 -74 108 -26 52 -28 66 -28 172 1 103
3 121 28 173 49 107 184 218 284 234 18 3 31 9 28 12 -7 12 116 1 175 -16z
m-418 -83 c-13 -11 -23 -23 -24 -27 -3 -18 -42 -62 -51 -56 -6 3 -2 12 8 20
11 7 15 13 10 13 -5 0 8 18 30 40 21 22 41 37 44 34 3 -3 -4 -14 -17 -24z
m-202 -75 c0 -21 -3 -21 -82 -17 -46 2 -84 6 -86 7 -9 8 14 33 45 51 l37 22
43 -21 c31 -15 43 -27 43 -42z m1195 4 c4 -11 5 -22 3 -24 -1 -1 -39 -4 -83
-6 -79 -4 -80 -4 -83 21 -2 21 4 29 39 47 42 21 43 22 80 2 21 -10 41 -28 44
-40z m-1393 -46 c10 -9 18 -27 18 -40 0 -12 6 -23 13 -23 34 -1 -30 -21 -85
-26 -48 -5 -68 -12 -86 -30 -13 -13 -18 -24 -12 -24 5 0 10 -7 10 -16 0 -8 -3
-13 -8 -10 -4 2 -8 -10 -9 -27 0 -18 4 -35 10 -39 7 -4 5 -12 -5 -22 -14 -14
-16 -13 -22 7 -10 39 -6 93 9 113 8 10 15 34 15 52 0 43 25 91 53 102 29 12
76 4 99 -17z m1113 18 c-3 -5 0 -15 7 -23 7 -7 13 -19 14 -25 3 -39 5 -44 13
-39 5 4 7 -3 4 -14 -3 -11 -10 -23 -16 -27 -6 -3 -7 -1 -3 5 8 13 -14 93 -24
87 -4 -2 -5 6 -4 18 3 27 3 27 10 27 3 0 3 -4 -1 -9z m265 -221 l0 -200 -70 0
c-38 0 -70 3 -70 8 0 4 7 29 15 56 19 62 18 217 -1 271 -7 22 -11 29 -8 15 14
-65 15 -226 1 -270 -15 -44 -15 -40 -16 115 0 88 2 170 5 183 6 20 12 22 75
22 l69 0 0 -200z m-1181 -2 c-1 -149 -2 -160 -14 -123 -17 50 -19 182 -4 241
6 24 13 44 15 44 2 0 4 -73 3 -162z m-159 2 c0 -103 -1 -110 -20 -110 -19 0
-20 7 -20 110 0 103 1 110 20 110 19 0 20 -7 20 -110z m-123 -52 c-2 -29 -3
-6 -3 52 0 58 1 81 3 53 2 -29 2 -77 0 -105z m20 0 c-2 -29 -3 -6 -3 52 0 58
1 81 3 53 2 -29 2 -77 0 -105z m20 0 c-2 -29 -3 -6 -3 52 0 58 1 81 3 53 2
-29 2 -77 0 -105z m30 0 c-2 -29 -3 -6 -3 52 0 58 1 81 3 53 2 -29 2 -77 0
-105z m1460 0 c-2 -29 -3 -6 -3 52 0 58 1 81 3 53 2 -29 2 -77 0 -105z m33 52
c0 -49 -4 -92 -10 -95 -6 -4 -10 30 -10 95 0 65 4 99 10 95 6 -3 10 -46 10
-95z m17 -52 c-2 -29 -3 -6 -3 52 0 58 1 81 3 53 2 -29 2 -77 0 -105z m20 0
c-2 -29 -3 -6 -3 52 0 58 1 81 3 53 2 -29 2 -77 0 -105z m20 10 c-2 -29 -3 -8
-3 47 0 55 1 79 3 53 2 -26 2 -71 0 -100z m-1660 -5 c-2 -27 -3 -5 -3 47 0 52
1 74 3 48 2 -27 2 -69 0 -95z m20 0 c-2 -27 -3 -5 -3 47 0 52 1 74 3 48 2 -27
2 -69 0 -95z m1664 14 c-8 -49 -9 -47 -9 38 0 74 2 83 9 52 5 -21 5 -60 0 -90z
m-1671 -74 c8 -1 41 -5 73 -8 50 -6 57 -9 57 -29 0 -59 -91 -89 -138 -46 -12
12 -22 24 -23 28 -10 105 -10 108 3 82 8 -14 20 -26 28 -27z m310 -131 c0 -23
-7 -32 -35 -45 -20 -9 -42 -17 -51 -17 -16 0 -65 28 -76 45 -23 31 -3 38 120
43 40 2 42 1 42 -26z m1198 12 c19 -16 -49 -74 -86 -74 -47 0 -100 59 -75 84
6 6 153 -3 161 -10z m-394 -305 c-3 -5 0 -17 6 -26 10 -16 11 -16 5 2 -3 11
-2 16 2 11 10 -9 12 -56 2 -50 -10 6 -20 -26 -12 -38 4 -7 1 -8 -7 -3 -10 6
-12 4 -7 -9 4 -9 3 -14 -2 -11 -5 3 -13 0 -16 -6 -4 -5 -13 -8 -20 -5 -8 3
-16 0 -19 -7 -2 -7 -4 4 -5 23 0 28 2 31 9 15 7 -16 9 -14 9 15 1 27 -2 32
-10 20 -8 -12 -9 -10 -5 10 3 14 6 35 6 47 0 12 7 23 18 25 24 6 53 -3 46 -13z
m-504 -64 c0 -58 -3 -77 -15 -81 -20 -8 -42 11 -65 57 -16 31 -17 41 -7 68 10
27 16 31 49 31 l38 0 0 -75z m325 -95 c0 -12 -20 -16 -107 -18 -103 -3 -108
-2 -108 18 0 20 5 21 108 18 87 -2 107 -6 107 -18z m-52 -37 c-29 -2 -78 -2
-110 0 -32 2 -8 3 52 3 61 0 87 -1 58 -3z m0 -20 c-29 -2 -77 -2 -105 0 -29 2
-6 3 52 3 58 0 81 -1 53 -3z m-5 -20 c-26 -2 -71 -2 -100 0 -29 2 -8 3 47 3
55 0 79 -1 53 -3z m0 -30 c-26 -2 -71 -2 -100 0 -29 2 -8 3 47 3 55 0 79 -1
53 -3z m0 -20 c-26 -2 -71 -2 -100 0 -29 2 -8 3 47 3 55 0 79 -1 53 -3z m-6
-26 c-35 -7 -66 -7 -95 0 -38 10 -33 11 53 10 92 0 93 0 42 -10z"/>
<path d="M1587 1053 c-10 -10 -8 -161 2 -167 5 -3 9 17 9 44 1 28 3 54 7 59 3
5 1 12 -3 15 -5 3 -7 17 -4 31 4 25 1 31 -11 18z"/>
<path d="M972 440 c10 -6 48 -13 85 -15 68 -4 68 -4 13 4 -30 5 -68 12 -85 15
-24 6 -27 5 -13 -4z"/>
</g>
</svg>
